<?xml version="1.0" encoding="UTF-8"?>
<svg id="Layer_1" data-name="Layer 1" xmlns="http://www.w3.org/2000/svg" viewBox="0 0 1024 1024">
  <defs>
    <style>
      .cls-1 {
        fill: #fff;
      }
    </style>
  </defs>
  <path d="M1024,0v1024H0V0h1024ZM929.56,152.03c18.13-21.84,29.04-50.52,35.66-77.86l-3.17-2-507.9.02c-198.84.23-263.08,263.17-75.15,344.74,44.11,19.15,70.29,11.05,114.6,14.76,54.22,4.54,59.08,72.87,8.08,85.65-96.9,7.16-202.25-24.85-280.43,47.74-33.83,31.41-44.93,70.46-58.47,113.16-22.47,58.6-45.86,120.31-67.38,179.32-10.67,29.28-20.34,59.2-30.03,88.83,28.84.09,56.97,1.7,84.74-7.17,35.31-11.27,65.97-39.04,81.63-72.25,26.03-55.22,41.98-120.53,69.85-173.9,13.39-25.65,37.12-37.52,65.41-39.44,73.4-4.98,151.48,15.05,218.09-22.93,147.87-84.3,108.93-300.08-55.34-331.86-30.39-5.88-82.48,3.18-104.81-12.3-39.31-27.25-12.49-78.81,30.49-78.26l374.35-.12c38.74-4.78,75.01-26.3,99.78-56.13Z"/>
  <path class="cls-1" d="M929.56,152.03c-24.77,29.84-61.04,51.36-99.78,56.13l-374.35.12c-42.98-.55-69.8,51.02-30.49,78.26,22.33,15.48,74.41,6.42,104.81,12.3,164.27,31.77,203.2,247.55,55.34,331.86-66.61,37.98-144.69,17.95-218.09,22.93-28.3,1.92-52.02,13.79-65.41,39.44-27.87,53.37-43.82,118.68-69.85,173.9-15.66,33.21-46.32,60.97-81.63,72.25-27.77,8.86-55.9,7.26-84.74,7.17,9.7-29.62,19.36-59.55,30.03-88.83,21.52-59.01,44.9-120.72,67.38-179.32,13.54-42.69,24.64-81.75,58.47-113.16,78.18-72.59,183.53-40.58,280.43-47.74,51.01-12.78,46.14-81.11-8.08-85.65-44.31-3.71-70.49,4.39-114.6-14.76-187.94-81.57-123.69-344.51,75.15-344.74l507.9-.02,3.17,2c-6.62,27.34-17.53,56.03-35.66,77.86Z"/>
</svg>