<?xml version="1.0" encoding="UTF-8"?>
<svg id="Layer_1" data-name="Layer 1" xmlns="http://www.w3.org/2000/svg" viewBox="0 0 100 100">
  <defs>
    <style>
      .cls-1 {
        fill: none;
      }
    </style>
  </defs>
  <path class="cls-1" d="M100,0v100H0V0h100ZM89.98,15.64c1.69-1.79,3.14-4.25,3.81-6.63.13-.47.62-1.9.03-1.97h-49.33c-6.62.33-11.88,2.64-15.6,8.2-7.69,11.47.99,26.14,14.27,26.91,2.94.17,7.37-.95,8.91,2.39s-1.06,5.92-4.38,6.12c-9.57.58-19.97-2.56-27.13,5.58-2.51,2.85-3.77,7.16-5.06,10.63-2.08,5.6-3.73,11.73-6.22,17.06-1.11,2.37-1.63,5.55-2.79,7.98-.19.39,0,.47.37.51,6.42.71,13-1.72,15.79-7.76,2.1-4.56,3.69-9.58,5.68-14.16,1.63-3.75,2.49-6.33,7.26-6.68,7.13-.52,15,1.47,21.48-2.19,7.51-4.25,11.14-13.18,7.98-21.28-2.58-6.6-8.78-11.09-15.89-11.5-2.43-.14-5.6.58-7.64-.87-3.66-2.59-1.49-7.37,2.58-7.64h36.71c3.58-.36,6.76-2.12,9.2-4.7Z"/>
  <path d="M89.98,15.64c-2.44,2.57-5.62,4.34-9.2,4.7h-36.71c-4.07.27-6.24,5.05-2.58,7.64,2.04,1.44,5.22.73,7.64.87,7.11.41,13.31,4.9,15.89,11.5,3.16,8.11-.47,17.03-7.98,21.28-6.48,3.67-14.35,1.68-21.48,2.19-4.77.35-5.63,2.92-7.26,6.68-1.99,4.58-3.58,9.6-5.68,14.16-2.79,6.05-9.37,8.47-15.79,7.76-.37-.04-.56-.11-.37-.51,1.16-2.42,1.69-5.61,2.79-7.98,2.48-5.33,4.14-11.46,6.22-17.06,1.29-3.47,2.55-7.78,5.06-10.63,7.16-8.14,17.57-5,27.13-5.58,3.32-.2,5.96-2.73,4.38-6.12s-5.97-2.22-8.91-2.39c-13.27-.78-21.96-15.44-14.27-26.91,3.73-5.56,8.98-7.87,15.6-8.2h49.33c.6.07.11,1.5-.03,1.97-.67,2.38-2.12,4.84-3.81,6.63Z"/>
</svg>